<?xml version="1.0" encoding="UTF-8" standalone="no"?>
<!-- Created with Inkscape (http://www.inkscape.org/) -->

<svg
   xmlns:dc="http://purl.org/dc/elements/1.1/"
   xmlns:cc="http://creativecommons.org/ns#"
   xmlns:rdf="http://www.w3.org/1999/02/22-rdf-syntax-ns#"
   xmlns:svg="http://www.w3.org/2000/svg"
   xmlns="http://www.w3.org/2000/svg"
   xmlns:sodipodi="http://sodipodi.sourceforge.net/DTD/sodipodi-0.dtd"
   xmlns:inkscape="http://www.inkscape.org/namespaces/inkscape"
   width="496.06299"
   height="389.76376"
   id="svg4872"
   version="1.1"
   inkscape:version="0.48.4 r9939"
   sodipodi:docname="bottom.svg">
  <defs
     id="defs4874" />
  <sodipodi:namedview
     id="base"
     pagecolor="#ffffff"
     bordercolor="#666666"
     borderopacity="1.0"
     inkscape:pageopacity="0.0"
     inkscape:pageshadow="2"
     inkscape:zoom="1.4"
     inkscape:cx="198.68015"
     inkscape:cy="207.64276"
     inkscape:document-units="mm"
     inkscape:current-layer="layer1"
     showgrid="false"
     units="mm"
     showguides="true"
     inkscape:guide-bbox="true"
     inkscape:window-width="1920"
     inkscape:window-height="1017"
     inkscape:window-x="-8"
     inkscape:window-y="-8"
     inkscape:window-maximized="1">
    <sodipodi:guide
       orientation="1,0"
       position="106.42857,332.85714"
       id="guide4940" />
    <sodipodi:guide
       orientation="1,0"
       position="390,296.42857"
       id="guide4942" />
  </sodipodi:namedview>
  <metadata
     id="metadata4877">
    <rdf:RDF>
      <cc:Work
         rdf:about="">
        <dc:format>image/svg+xml</dc:format>
        <dc:type
           rdf:resource="http://purl.org/dc/dcmitype/StillImage" />
        <dc:title />
      </cc:Work>
    </rdf:RDF>
  </metadata>
  <g
     inkscape:label="Layer 1"
     inkscape:groupmode="layer"
     id="layer1"
     transform="translate(0,-662.59832)">
    <rect
       style="fill:none;stroke:#000000;stroke-width:0.99416482;stroke-miterlimit:4;stroke-opacity:1;stroke-dasharray:none"
       id="rect4880"
       width="424.20117"
       height="317.90497"
       x="35.756557"
       y="698.40961" />
    <path
       sodipodi:type="arc"
       style="fill:none;stroke:#000000;stroke-width:0.99921262;stroke-miterlimit:4;stroke-opacity:1;stroke-dasharray:none"
       id="path4882"
       sodipodi:cx="342.14285"
       sodipodi:cy="331.54947"
       sodipodi:rx="5.7142859"
       sodipodi:ry="6.0714288"
       d="m 347.85714,331.54947 c 0,3.35316 -2.55837,6.07143 -5.71429,6.07143 -3.15591,0 -5.71428,-2.71827 -5.71428,-6.07143 0,-3.35316 2.55837,-6.07143 5.71428,-6.07143 3.15592,0 5.71429,2.71827 5.71429,6.07143 z"
       transform="translate(0,662.59832)" />
    <path
       transform="translate(-187.14285,662.95546)"
       sodipodi:type="arc"
       style="fill:none;stroke:#000000;stroke-width:0.99921262;stroke-miterlimit:4;stroke-opacity:1;stroke-dasharray:none"
       id="path4882-0"
       sodipodi:cx="342.14285"
       sodipodi:cy="331.54947"
       sodipodi:rx="5.7142859"
       sodipodi:ry="6.0714288"
       d="m 347.85714,331.54947 c 0,3.35316 -2.55837,6.07143 -5.71429,6.07143 -3.15591,0 -5.71428,-2.71827 -5.71428,-6.07143 0,-3.35316 2.55837,-6.07143 5.71428,-6.07143 3.15592,0 5.71429,2.71827 5.71429,6.07143 z" />
    <path
       transform="translate(1.1548816e-6,414.91976)"
       sodipodi:type="arc"
       style="fill:none;stroke:#000000;stroke-width:0.99921262;stroke-miterlimit:4;stroke-opacity:1;stroke-dasharray:none"
       id="path4882-8"
       sodipodi:cx="342.14285"
       sodipodi:cy="331.54947"
       sodipodi:rx="5.7142859"
       sodipodi:ry="6.0714288"
       d="m 347.85714,331.54947 c 0,3.35316 -2.55837,6.07143 -5.71429,6.07143 -3.15591,0 -5.71428,-2.71827 -5.71428,-6.07143 0,-3.35316 2.55837,-6.07143 5.71428,-6.07143 3.15592,0 5.71429,2.71827 5.71429,6.07143 z" />
    <path
       transform="translate(-187.14285,415.2769)"
       sodipodi:type="arc"
       style="fill:none;stroke:#000000;stroke-width:0.99921262;stroke-miterlimit:4;stroke-opacity:1;stroke-dasharray:none"
       id="path4882-0-8"
       sodipodi:cx="342.14285"
       sodipodi:cy="331.54947"
       sodipodi:rx="5.7142859"
       sodipodi:ry="6.0714288"
       d="m 347.85714,331.54947 c 0,3.35316 -2.55837,6.07143 -5.71429,6.07143 -3.15591,0 -5.71428,-2.71827 -5.71428,-6.07143 0,-3.35316 2.55837,-6.07143 5.71428,-6.07143 3.15592,0 5.71429,2.71827 5.71429,6.07143 z" />
    <rect
       style="fill:none;stroke:#000000;stroke-width:0.99921262;stroke-miterlimit:4;stroke-opacity:1;stroke-dasharray:none"
       id="rect4946"
       width="106.42857"
       height="195"
       x="195"
       y="109.04948"
       transform="translate(0,662.59832)" />
    <path
       style="fill:none;stroke:#000000;stroke-width:1px;stroke-linecap:butt;stroke-linejoin:miter;stroke-opacity:1"
       d="m 106.42857,114.76376 0,190.71429"
       id="path4952"
       inkscape:connector-curvature="0"
       transform="translate(0,662.59832)" />
    <path
       style="fill:none;stroke:#000000;stroke-width:1px;stroke-linecap:butt;stroke-linejoin:miter;stroke-opacity:1"
       d="m 390,108.33519 0,199.28572"
       id="path4954"
       inkscape:connector-curvature="0"
       transform="translate(0,662.59832)" />
  </g>
</svg>
